<svg width="48" height="48" viewBox="0 0 48 48" fill="none" xmlns="http://www.w3.org/2000/svg"><path d="M18 18c0 2.762-2.238 5-5 5s-5-2.238-5-5 2.238-5 5-5 5 2.238 5 5ZM3 30.333C3 26.787 9.662 25 13 25c3.337 0 10 1.787 10 5.333V35H3v-4.667ZM40 18c0 2.762-2.237 5-5 5s-5-2.238-5-5 2.237-5 5-5 5 2.238 5 5Zm-12-1c0 2.21-1.79 4-4 4s-4-1.79-4-4 1.79-4 4-4 4 1.79 4 4Zm-3 13.333C25 26.787 31.663 25 35 25c3.337 0 10 1.787 10 5.333V35H25v-4.667Z" fill="#fff"/><path fill-rule="evenodd" clip-rule="evenodd" d="M28.75 24.185c-.266.098-.53.202-.788.313-1.17.5-2.353 1.176-3.272 2.08-.246.243-.48.508-.69.797a6.48 6.48 0 0 0-.69-.797c-.919-.904-2.101-1.58-3.273-2.08a16.46 16.46 0 0 0-.788-.313C20.772 23.396 22.73 23 24 23c1.27 0 3.228.396 4.75 1.185Z" fill="#fff"/></svg>